#!OML:ASF F:\VICON\USERDATA\INSTALL\rory3\rory3.ASF
:FULLY-SPECIFIED
:DEGREES
144
root 1.4671075089752739 17.894415048613542 52.83790618577952 -3.3722895647863007 -0.1508470457997263 -5.915119243583131
lfemur -9.211724303663518 -0.647736700242477 -12.689122210619919
ltibia 59.478036106353784
lfoot -6.8229583954819715 -0.35371930278582653
ltoes -13.064146488820782
rfemur -11.865608679244767 2.042335202699242 30.326929621941403
rtibia 31.301125976250063
rfoot -11.717895235086274 -11.258648445033996
rtoes 0.24004936025135581
lowerback nan -0.7173783637463476 2.605369887525084
upperback -0.3610941061378737 -0.3925440835160677 2.4665999542268744
thorax -6.245896609205321 -0.23425069082937258 1.9953357971300651
lowerneck -17.01207304094537 -3.5499668664388078 -1.3182453820701143
upperneck 21.179106947070203 -4.8131750803261335 1.0968004677598941
head 9.558263263738029 -2.222983937537789 0.011876509739039032
lclavicle -2.565445833380086e-15 -2.7694915748408987e-15
lhumerus -30.199006992243877 2.5875871748816506 82.12477927016405
lradius 23.493201356194806
lwrist 11.07039661965172
lhand -29.637196897078507 18.708697510943146
lfingers nan
lthumb -2.877005720021083 48.79661149353897
rclavicle -2.535836825334746e-15 -2.7529528687033317e-15
rhumerus -32.541473457521775 -21.619790626734186 -76.56882495832714
rradius 31.496778563591707
rwrist 2.2009501448846285
rhand -18.033763702556794 nan
rfingers nan
rthumb 8.774936631062104 -7.2424641829979075
145
root 1.4564751252913992 17.898315132709914 53.01079972551444 -3.4326072419423874 0.24954344904717007 -6.142477223071219
lfemur -12.373695202133872 -0.696622133665832 -12.727879362276287
ltibia 59.33426743540255
lfoot -7.259690630486496 -0.417368773000105
ltoes -13.935612925720633
rfemur -10.330864294871496 2.0447059758478154 30.50291715781789
rtibia 31.61112934452365
rfoot -11.188429021144895 -11.143439732424314
rtoes -0.44522695100787013
lowerback nan -0.4437198387722686 3.0931978825667867
upperback -0.3653395408333531 0.07020439899869624 2.394086229797776
thorax -6.2636752485227705 -0.007833858884551154 1.4207702385447432
lowerneck -16.92976136394356 -3.670624992859133 -1.2802735104139615
upperneck 21.080904791247054 -5.040037296615895 1.1031176760563874
head 9.523066939066924 -2.3057709708914302 -0.035484615048410134
lclavicle -2.5657352994573893e-15 -2.771898587171995e-15
lhumerus -30.290596559496397 2.812244494320523 82.14032765546693
lradius 23.66010581236388
lwrist 11.167226962805778
lhand -29.614968234065557 18.680380810465856
lfingers nan
lthumb -2.8293175060455154 48.82380622912157
rclavicle -2.5336287021679806e-15 -2.753282383252682e-15
rhumerus -32.53466121221982 -21.734075606083614 -76.41748196632874
rradius 31.50483409456374
rwrist 2.239314207937399
rhand -18.034198953787204 nan
rfingers nan
rthumb 8.745405773184281 -7.2923428305427
146
root 1.4572035449426926 17.904706514084864 53.523777059289465 -3.5427408399888782 0.696535073795863 -5.878121413104657
lfemur -14.547340145022783 -0.9131749737761148 -13.445345847121619
ltibia 57.52871819175732
lfoot -8.306987346010397 -0.03192784016266792
ltoes -14.25612713638769
rfemur -8.690401071595922 1.8121846045549581 30.17198421159687
rtibia 31.75956997450962
rfoot -10.206216274758283 -10.946541577600621
rtoes -0.7667770746677887
lowerback nan -0.20593229872795113 3.214801761898359
upperback -0.3676210654015724 0.3858222543249569 2.250873335884798
thorax -6.233655355532457 0.15359158823974972 0.9395996347379927
lowerneck -16.76473491956094 -3.778115262393588 -1.2978331603702933
upperneck 21.07842899311431 -5.243528281505866 1.1090325185794596
head 9.517639543178502 -2.379038485087744 -0.07269679851946528
lclavicle -2.564700116974551e-15 -2.773472974911128e-15
lhumerus -30.27856004396917 2.943159340583554 82.16274511708109
lradius 23.851617729615107
lwrist 11.238544728715508
lhand -29.59786658614132 18.607843592251747
lfingers nan
lthumb -2.8607944307717457 48.64403012801022
rclavicle -2.531486480501145e-15 -2.753602569573534e-15
rhumerus -32.55853823528206 -21.808818408832206 -76.26335398179003
rradius 31.52769882728771
rwrist 2.256978531227733
rhand -18.0382109792338 nan
rfingers nan
rthumb 8.757582508830925 -7.2530379360417525
147
root 1.4557068815421517 17.90730716828232 53.452262842899124 -3.705948027748894 1.1127668798146988 -5.527880084165962
lfemur -15.783453494981428 -1.2240328847881845 -14.31519645405287
ltibia 54.3560925406391
lfoot -9.273496576552681 0.3307242470754419
ltoes -14.468154224120287
rfemur -7.1216205320180315 1.5648539489497666 29.780752635874162
rtibia 31.950770565156418
rfoot -8.805419418010057 -10.656083164588841
rtoes -0.6347408801829064
lowerback nan 0.005546614635694586 3.216021008710987
upperback -0.3672930647482241 0.6482988266469006 2.093856943766501
thorax -6.176102052550326 0.29528230723126253 0.5328053061061978
lowerneck -16.555287028822207 -3.8620104700948303 -1.3544604605912147
upperneck 21.1702863368318 -5.406153157689806 1.1217672575926019
head 9.543160830402163 -2.437300615042018 -0.09636459432950964
lclavicle -2.5628619228329597e-15 -2.774216829061482e-15
lhumerus -30.13686368137361 2.9524510208483394 82.2002968844357
lradius 24.041018162554433
lwrist 11.277100029615081
lhand -29.604537533104768 18.4684255034684
lfingers nan
lthumb -2.829207941925107 48.60916975568057
rclavicle -2.529748468276613e-15 -2.7539015842551786e-15
rhumerus -32.556765478219795 -21.84601726215691 -76.1121454194621
rradius 31.58216581456509
rwrist 2.2580845445941704
rhand -18.040569530298356 nan
rfingers nan
rthumb 8.73792839541741 -7.280149668955211
148
root 1.4386302060398717 17.904031794880957 53.21040612021937 -3.8241137764462456 1.455973573220117 -5.217915993747194
lfemur -16.317327929395425 -1.5607591631228024 -15.10153082955663
ltibia 50.232055179956845
lfoot -9.660823997296689 1.0493186501197553
ltoes -14.108974160425458
rfemur -6.103452169689162 1.4474454017583218 29.44742254664758
rtibia 32.59158842679193
rfoot -7.155909769737807 -10.39182114651183
rtoes -0.020445461412032184
lowerback nan 0.18299344527318573 3.1622284180346725
upperback -0.3703622932630355 0.8639432063341603 1.9456628261617597
thorax -6.114460742087031 0.4156428198980324 0.18791979980636464
lowerneck -16.358438197518215 -3.9211138571088116 -1.4301322708434507
upperneck 21.32031143783164 -5.525702279847102 1.1535521488219398
head 9.589341225498167 -2.4797948454700833 -0.10350025902210389
lclavicle -2.5604096361252e-15 -2.7742813641685824e-15
lhumerus -29.93308590105643 2.8582129564511893 82.22417579065124
lradius 24.219185162413822
lwrist 11.243149179075443
lhand -29.607823567635524 18.34930350747312
lfingers nan
lthumb -2.8646232565782515 48.45095665948784
rclavicle -2.5284127798435755e-15 -2.7542079690813737e-15
rhumerus -32.43727694593855 -21.796593152773205 -75.94852168428875
rradius 31.656476525401295
rwrist 2.2568964083712744
rhand -18.04606292968748 nan
rfingers nan
rthumb 8.75869931440824 -7.226445502399569
149
root 1.4394211967681183 17.90802897040625 54.23173495836691 -3.812001715020996 1.8557707088955875 -4.85965439075097
lfemur -16.214995600853594 -1.8912643641583946 -15.888544457050921
ltibia 45.46619854499349
lfoot -9.431392647565467 1.3644475810162127
ltoes -15.101217868742712
rfemur -5.856028001824837 1.3735428345164862 29.07917251733106
rtibia 33.94926013499048
rfoot -5.729024076184589 -10.419869644183954
rtoes 1.0487674516116146
lowerback nan 0.27674979173105707 3.0115204927940233
upperback -0.37953842107457186 0.9274250276556966 1.796156814388853
thorax -6.063422867618741 0.4625413736887454 -0.021148246824440387
lowerneck -16.211763044705588 -3.961302881864092 -1.5078659595979724
upperneck 21.472204736631944 -5.610985324755086 1.214072962723286
head 9.636604186210517 -2.5090805452023264 -0.09276579153451006
lclavicle -2.557879069919932e-15 -2.7740144829204028e-15
lhumerus -29.737909753257515 2.6550183968283267 82.20759041752555
lradius 24.39801182852668
lwrist 11.134650936219147
lhand -29.57751263740646 18.30520479714402
lfingers nan
lthumb -2.816027846691477 48.4734618515657
rclavicle -2.527659617625137e-15 -2.7546431371182126e-15
rhumerus -32.21106887349605 -21.679280651950496 -75.82820922913386
rradius 31.730637891122
rwrist 2.2613518090444886
rhand -18.050386854323342 nan
rfingers nan
rthumb 8.751233678838586 -7.237250359001659
150
root 1.4425669736862967 17.922218935039787 54.58107489224155 -3.5940164021732626 2.1664391113481845 -5.0194487383865365
lfemur -15.798902922064046 -2.1588964549774747 -16.192422371345412
ltibia 40.637397138547435
lfoot -10.27592958302309 0.9078850821871334
ltoes -15.212507025878647
rfemur -6.32047522484389 1.3226241208643637 29.063594783325012
rtibia 36.09988990928571
rfoot -4.366847590500338 -10.564011362521725
rtoes 2.3467568229348714
lowerback nan 0.3205352084504447 3.16532357273197
upperback -0.4068987587900586 0.9935712965409482 1.7188302067960495
thorax -6.031833197452132 0.5023180853846831 -0.19999871153192794
lowerneck -16.12758486938412 -3.984436251889324 -1.5720722788735095
upperneck 21.58107430260421 -5.664569145572999 1.3049517363101684
head 9.669223148370989 -2.526143333855131 -0.06514283513556832
lclavicle -2.555818019630051e-15 -2.7735098539457225e-15
lhumerus -29.55091363381143 2.447924829530808 82.16399090247629
lradius 24.59584233196202
lwrist 11.005530799144914
lhand -29.552301756127672 18.26513559888351
lfingers nan
lthumb -2.8332336758093684 48.371274413532994
rclavicle -2.5268232676349115e-15 -2.754652731218302e-15
rhumerus -31.913501471603997 -21.525627233434854 -75.75209021778106
rradius 31.790577423314094
rwrist 2.266731398751435
rhand -18.05679753844035 nan
rfingers nan
rthumb 8.762911131821529 -7.209038336584219
151
root 1.4237830400566174 17.927963810536333 53.2131189486681 -3.5341384980632666 2.1055906914680795 -5.315251687850925
lfemur -14.973981311321555 -2.283000844138978 -16.290217068863498
ltibia 36.13389096824968
lfoot -10.351130891316991 0.9027719005797334
ltoes -16.031247587234546
rfemur -7.160688421694675 1.39907051029696 29.1920487493729
rtibia 38.830117526360354
rfoot -3.5889421151104264 -10.94000466716415
rtoes 3.836668387251016
lowerback nan 0.38779837844106857 3.3186397295572823
upperback -0.43365544641804593 1.083399923204761 1.6750557677229667
thorax -6.006757821717951 0.5494853303177782 -0.34070046219071415
lowerneck -16.096429738592878 -3.9942933986678377 -1.6152595276740083
upperneck 21.625250639561752 -5.693622124298479 1.4242099745222636
head 9.680097543708325 -2.53341740275293 -0.023239086204011744
lclavicle -2.5544277339086847e-15 -2.7732455584942928e-15
lhumerus -29.365807755786705 2.2979399641357148 82.11128752107662
lradius 24.821108907291745
lwrist 10.889188248243066
lhand -29.531725361642273 18.270638575165375
lfingers nan
lthumb -2.7921555406881113 48.428564303876975
rclavicle -2.5268326856815636e-15 -2.7550436291460475e-15
rhumerus -31.533846814970765 -21.32160523271533 -75.68400875016435
rradius 31.83125156436531
rwrist 2.2669575026231685
rhand -18.061453047960356 nan
rfingers nan
rthumb 8.74134377680727 -7.251989476814642
